<?xml version="1.0" encoding="UTF-8" standalone="no"?>
<!-- Created with Inkscape (http://www.inkscape.org/) -->

<svg
   xmlns:dc="http://purl.org/dc/elements/1.1/"
   xmlns:cc="http://creativecommons.org/ns#"
   xmlns:rdf="http://www.w3.org/1999/02/22-rdf-syntax-ns#"
   xmlns:svg="http://www.w3.org/2000/svg"
   xmlns="http://www.w3.org/2000/svg"
   xmlns:xlink="http://www.w3.org/1999/xlink"
   xmlns:sodipodi="http://sodipodi.sourceforge.net/DTD/sodipodi-0.dtd"
   xmlns:inkscape="http://www.inkscape.org/namespaces/inkscape"
   width="1024"
   height="1024"
   id="svg2"
   version="1.1"
   inkscape:version="0.48.3.1 r9886"
   sodipodi:docname="angel-PS1.svg"
   inkscape:export-filename="/home/dolmen/Ubuntu One/Images/angel-PS1/angel-PS1.png"
   inkscape:export-xdpi="2.8099999"
   inkscape:export-ydpi="2.8099999">
  <title
     id="title3784">angel-PS1 logo</title>
  <defs
     id="defs4">
    <linearGradient
       id="linearGradient3763">
      <stop
         style="stop-color:#ffffff;stop-opacity:1;"
         offset="0"
         id="stop3765" />
      <stop
         id="stop3771"
         offset="0.5"
         style="stop-color:#ffffff;stop-opacity:0.69387758;" />
      <stop
         style="stop-color:#ffffff;stop-opacity:0;"
         offset="1"
         id="stop3767" />
    </linearGradient>
    <linearGradient
       inkscape:collect="always"
       xlink:href="#linearGradient3763"
       id="linearGradient3769"
       x1="136.439"
       y1="402.745"
       x2="365"
       y2="402.745"
       gradientUnits="userSpaceOnUse"
       gradientTransform="matrix(1.1691163,0,0,1.1353861,-149.55281,134.65135)" />
    <linearGradient
       inkscape:collect="always"
       xlink:href="#linearGradient3763"
       id="linearGradient2992"
       gradientUnits="userSpaceOnUse"
       gradientTransform="matrix(-1.1691163,0,0,1.1353861,1178.3755,134.65134)"
       x1="136.439"
       y1="402.745"
       x2="365"
       y2="402.745" />
  </defs>
  <sodipodi:namedview
     id="base"
     pagecolor="#d2ebf7"
     bordercolor="#666666"
     borderopacity="1.0"
     inkscape:pageopacity="1"
     inkscape:pageshadow="2"
     inkscape:zoom="0.49497475"
     inkscape:cx="618.27154"
     inkscape:cy="464.75214"
     inkscape:document-units="px"
     inkscape:current-layer="layer1"
     showgrid="false"
     inkscape:window-width="959"
     inkscape:window-height="576"
     inkscape:window-x="65"
     inkscape:window-y="24"
     inkscape:window-maximized="1" />
  <metadata
     id="metadata7">
    <rdf:RDF>
      <cc:Work
         rdf:about="">
        <dc:format>image/svg+xml</dc:format>
        <dc:type
           rdf:resource="http://purl.org/dc/dcmitype/StillImage" />
        <dc:title>angel-PS1 logo</dc:title>
        <dc:date>2013-06-09</dc:date>
        <dc:creator>
          <cc:Agent>
            <dc:title>Olivier Mengué</dc:title>
          </cc:Agent>
        </dc:creator>
        <dc:rights>
          <cc:Agent>
            <dc:title>Copyright 2013 Olivier Mengué</dc:title>
          </cc:Agent>
        </dc:rights>
        <dc:language>fr</dc:language>
        <dc:subject>
          <rdf:Bag>
            <rdf:li>angel-PS1</rdf:li>
            <rdf:li>shell</rdf:li>
            <rdf:li>Unix</rdf:li>
            <rdf:li>prompt</rdf:li>
            <rdf:li>bash</rdf:li>
            <rdf:li>zsh</rdf:li>
          </rdf:Bag>
        </dc:subject>
      </cc:Work>
    </rdf:RDF>
  </metadata>
  <g
     inkscape:label="Calque 1"
     inkscape:groupmode="layer"
     id="layer1"
     transform="translate(0,-28.362183)">
    <path
       style="fill:url(#linearGradient3769);fill-opacity:1;stroke:#000000;stroke-width:15;stroke-linecap:round;stroke-linejoin:round;stroke-miterlimit:4;stroke-opacity:1;stroke-dasharray:none"
       d="M 271.32905,943.92357 C 172.82918,966.70824 100.83736,830.08389 205.30129,809.03448 66.831631,832.48499 25.838054,730.62564 116.169,698.48416 51.567462,691.20823 -39.79004,640.05069 99.6352,566.58914 81.293622,561.86998 -60.42215,528.01913 71.29154,470.24844 -10.917733,449.99365 3.7929301,358.90785 81.711651,357.72374 55.634548,310.62749 74.808219,259.56496 152.77955,299.35838 c -22.27593,-60.45021 78.76816,-62.4718 118.5495,-61.93331"
       id="aile-gauche"
       inkscape:connector-curvature="0"
       sodipodi:nodetypes="cccccccc">
      <title
         id="title3776">Aile gauche</title>
    </path>
    <path
       sodipodi:nodetypes="cccccccc"
       inkscape:connector-curvature="0"
       id="aile-droite"
       d="m 757.49368,943.92357 c 98.49987,22.78466 170.4917,-113.83968 66.02776,-134.88909 138.46967,23.45051 179.46326,-78.40885 89.1323,-110.55032 64.60154,-7.27593 155.95906,-58.43348 16.5338,-131.89502 18.34158,-4.71917 160.05716,-38.57001 28.34366,-96.3407 82.2092,-20.25479 67.4986,-111.34059 -10.42011,-112.5247 26.0771,-47.09626 6.90343,-98.15878 -71.06791,-58.36536 22.27593,-60.45022 -78.76816,-62.4718 -118.5495,-61.93331"
       style="fill:url(#linearGradient2992);fill-opacity:1;stroke:#000000;stroke-width:15;stroke-linecap:round;stroke-linejoin:round;stroke-miterlimit:4;stroke-opacity:1;stroke-dasharray:none">
      <title
         id="title3774">Aile droite</title>
    </path>
    <g
       transform="scale(1.0306228,0.9702871)"
       style="font-size:1116.64086914px;font-style:normal;font-variant:normal;font-weight:normal;font-stretch:normal;line-height:125%;letter-spacing:0px;word-spacing:0px;fill:#808080;fill-opacity:0.50196078;stroke:#000000;stroke-width:15;stroke-miterlimit:4;stroke-opacity:1;font-family:Liberation Mono;-inkscape-font-specification:Liberation Mono"
       id="dollar-path">
      <desc
         id="desc3012">$</desc>
      <title
         id="title3010">Signe « dollar », transformé en chemin</title>
      <path
         d="m 792.30426,788.03569 c -6.3e-4,27.26192 -5.08948,52.52444 -15.26657,75.78764 -10.17832,23.26346 -25.62663,43.61887 -46.34496,61.0663 -20.71947,17.08407 -47.07246,30.89667 -79.05905,41.43784 -31.62407,10.17774 -69.06349,16.17531 -112.31837,17.99275 l 0,87.78278 -69.79005,0 0,-87.78278 C 391.37471,981.7758 330.12673,963.78307 285.78113,930.34197 241.79878,896.53751 213.62834,849.28388 201.26974,788.58093 l 92.68991,-20.17369 c 3.99826,19.62866 9.99584,37.80313 17.99275,54.52348 8.36011,16.3572 19.44654,30.71503 33.25932,43.07355 14.17592,12.35877 31.44167,22.35473 51.79731,29.98791 20.35518,7.26989 44.52723,11.63176 72.51623,13.08564 l 0,-266.61982 c -2.90822,-0.72663 -5.63439,-1.45361 -8.17852,-2.18094 -1.45426,-0.36313 -3.2717,-0.90837 -5.45235,-1.6357 -1.09076,-0.36314 -1.99948,-0.54488 -2.72618,-0.54524 -17.81127,-4.36152 -35.62225,-9.08688 -53.43301,-14.1761 -17.81122,-5.45198 -34.71348,-11.6313 -50.70683,-18.53799 -15.99372,-7.2694 -30.89679,-15.8114 -44.70926,-25.62603 -13.81274,-10.17729 -25.80789,-21.80896 -35.98549,-34.89503 -10.17781,-13.44866 -18.17458,-28.89696 -23.99033,-46.34496 -5.45242,-17.81049 -8.1786,-38.1659 -8.17853,-61.0663 -7e-5,-29.80558 5.81577,-55.43159 17.44752,-76.8781 11.63157,-21.80874 27.80686,-39.80147 48.5259,-53.97825 20.71876,-14.53889 45.2543,-25.44357 73.60669,-32.71409 28.71546,-7.26906 59.97556,-11.44919 93.78039,-12.5404 l 0,-70.88052 69.79005,0 0,70.88052 c 37.07556,1.4547 68.69915,6.18006 94.87086,14.17611 26.53426,7.99749 49.07061,19.26566 67.60911,33.80456 18.53743,14.54026 33.62225,32.53299 45.25449,53.97824 11.63108,21.08303 21.08181,45.43682 28.35221,73.06147 l -94.87085,17.99274 c -3.63541,-17.44695 -9.08776,-33.25875 -16.35705,-47.43542 -6.9068,-14.539 -16.17578,-26.89764 -27.80697,-37.07597 -11.26865,-10.54057 -24.8995,-18.71908 -40.89261,-24.53557 -15.99397,-6.17867 -34.71368,-9.99531 -56.15919,-11.44993 l 0,232.27003 c 21.08202,5.08928 41.98267,10.54162 62.70201,16.35704 20.71846,5.45276 40.34689,12.17731 58.88535,20.17369 18.90096,7.63367 36.34846,16.72091 52.34254,27.26174 15.99299,10.54156 29.8056,23.26369 41.43785,38.16643 11.99456,14.53991 21.26355,31.62392 27.80697,51.25208 6.5422,19.62871 9.8136,42.52854 9.81423,68.69958 M 329.94515,440.17589 c -1.6e-4,19.62899 3.63473,35.98601 10.9047,49.07113 7.26961,12.72264 17.08383,23.44558 29.44268,32.16885 12.72192,8.36074 27.44325,15.26704 44.16401,20.71893 17.08376,5.45279 35.43998,10.72339 55.06872,15.81181 l 0,-225.18198 c -25.80806,1.09113 -47.61743,4.72603 -65.42818,10.9047 -17.81122,5.81648 -32.16906,13.63151 -43.07355,23.4451 -10.90488,9.45135 -18.90165,20.53778 -23.99033,33.25932 -4.72553,12.35924 -7.08821,25.6266 -7.08805,39.80214 m 368.57872,346.2241 c -5.3e-4,-22.89963 -4.3624,-41.61934 -13.08563,-56.15919 -8.72427,-14.9028 -20.35593,-27.0797 -34.89503,-36.53073 -14.54006,-9.45043 -31.44233,-17.0837 -50.70683,-22.89986 -19.26538,-6.179 -39.43905,-11.99483 -60.52107,-17.44751 l 0,256.80559 c 23.62645,-1.45388 45.07233,-4.90703 64.33771,-10.35947 19.62799,-5.45224 36.34851,-13.26727 50.1616,-23.44509 14.1756,-10.17759 25.08029,-22.71798 32.71409,-37.6212 7.99625,-14.90292 11.99463,-32.35041 11.99516,-52.34254"
         style=""
         id="path3008" />
    </g>
    <text
       xml:space="preserve"
       style="font-size:1116.64086914px;font-style:normal;font-variant:normal;font-weight:normal;font-stretch:normal;line-height:125%;letter-spacing:0px;word-spacing:0px;fill:#808080;fill-opacity:0.50196078;stroke:#000000;stroke-width:15;stroke-miterlimit:4;stroke-opacity:1;stroke-dasharray:none;display:none;font-family:Liberation Mono;-inkscape-font-specification:Liberation Mono"
       x="165.28424"
       y="995.22491"
       id="dollar-texte"
       sodipodi:linespacing="125%"
       transform="scale(1.0306228,0.9702871)"><desc
         id="desc3778">$</desc><title
         id="title3770">Signe « dollar »</title><tspan
         sodipodi:role="line"
         id="tspan3000"
         x="165.28424"
         y="995.22491">$</tspan></text>
    <path
       sodipodi:type="arc"
       style="fill:none;stroke:#f2b11a;stroke-width:20;stroke-linecap:round;stroke-linejoin:round;stroke-miterlimit:4;stroke-opacity:1;stroke-dasharray:none"
       id="aureole"
       sodipodi:cx="474.7717"
       sodipodi:cy="105.77134"
       sodipodi:rx="145.46196"
       sodipodi:ry="37.375645"
       d="m 620.23366,105.77134 c 0,20.642 -65.12554,37.37564 -145.46196,37.37564 -80.33642,0 -145.46196,-16.73364 -145.46196,-37.37564 0,-20.641999 65.12554,-37.375645 145.46196,-37.375645 80.33642,0 145.46196,16.733646 145.46196,37.375645 z"
       transform="matrix(1.1691163,0,0,1.1353861,-43.063331,-6.5750278)"
       inkscape:label="#aureole">
      <title
         id="title3772">Auréole</title>
    </path>
  </g>
</svg>
